<?xml version="1.0" standalone="no"?>
<!DOCTYPE svg PUBLIC "-//W3C//DTD SVG 20010904//EN"
 "http://www.w3.org/TR/2001/REC-SVG-20010904/DTD/svg10.dtd">
<svg version="1.0" xmlns="http://www.w3.org/2000/svg"
 width="400.000000pt" height="234.000000pt" viewBox="0 0 400.000000 234.000000"
 preserveAspectRatio="xMidYMid meet">

<g transform="translate(0.000000,234.000000) scale(0.100000,-0.100000)"
fill="#000000" stroke="none">
<path d="M855 2316 c-147 -29 -307 -100 -424 -190 -135 -104 -261 -272 -322
-431 -17 -44 -49 -164 -70 -268 -56 -271 -54 -356 21 -677 103 -445 432 -713
906 -737 408 -21 759 186 904 533 37 89 78 240 67 250 -3 4 -29 9 -57 12 -46
4 -52 2 -83 -29 -22 -22 -42 -58 -57 -104 -93 -282 -264 -430 -575 -496 -89
-19 -285 -16 -370 5 -287 74 -496 294 -575 605 -22 88 -46 310 -36 336 5 13
109 15 897 15 l892 0 -7 139 c-11 246 -56 426 -143 580 -54 94 -162 216 -256
287 -81 61 -221 129 -322 155 -103 26 -293 34 -390 15z m278 -156 c353 -51
610 -350 657 -765 5 -49 10 -93 10 -97 0 -5 -362 -8 -805 -8 l-805 0 0 34 c0
56 28 196 54 273 86 253 269 445 499 524 130 45 260 58 390 39z"/>
<path d="M2127 2263 c-3 -4 172 -239 389 -522 217 -282 394 -516 394 -520 0
-3 -191 -263 -424 -576 -234 -313 -423 -573 -420 -577 7 -11 127 -10 158 2 54
20 119 99 454 552 l347 470 26 -32 c15 -18 169 -229 342 -469 174 -240 331
-450 349 -467 51 -49 90 -64 162 -64 35 0 71 3 80 6 11 4 -91 146 -396 551
-226 300 -415 557 -421 572 -5 15 -7 39 -4 53 4 15 91 136 194 270 103 134
272 355 376 492 210 279 208 271 87 264 -51 -3 -76 -10 -104 -28 -23 -16 -156
-185 -362 -458 l-326 -434 -199 269 c-109 147 -253 341 -320 431 -149 201
-168 216 -290 220 -47 2 -89 0 -92 -5z"/>
</g>
</svg>
