<?xml version="1.0" standalone="no"?>
<!DOCTYPE svg PUBLIC "-//W3C//DTD SVG 20010904//EN"
 "http://www.w3.org/TR/2001/REC-SVG-20010904/DTD/svg10.dtd">
<svg version="1.0" xmlns="http://www.w3.org/2000/svg"
 width="3440.000000pt" height="3109.000000pt" viewBox="0 0 3440.000000 3109.000000"
 preserveAspectRatio="xMidYMid meet">

<g transform="translate(0.000000,3109.000000) scale(0.100000,-0.100000)"
fill="#000000" stroke="none">
<path d="M16870 31074 c-25 -2 -110 -8 -190 -14 -299 -22 -602 -63 -925 -126
-2730 -534 -5162 -2495 -6526 -5262 -517 -1050 -979 -2489 -1218 -3797 -179
-976 -255 -1818 -255 -2830 0 -518 9 -772 45 -1240 197 -2586 1037 -5224 2455
-7712 57 -100 104 -185 104 -189 0 -3 -34 -74 -75 -158 -165 -335 -232 -602
-242 -968 -9 -300 25 -535 117 -812 229 -687 779 -1237 1466 -1466 251 -83
478 -120 741 -120 643 0 1231 249 1678 711 347 359 564 807 637 1314 20 137
16 503 -6 645 -117 748 -567 1380 -1230 1726 -225 117 -476 200 -726 239 -159
25 -438 30 -595 11 -102 -12 -133 -13 -142 -3 -6 7 -63 103 -127 214 -1390
2434 -2076 5012 -2076 7803 1 1796 250 3297 785 4725 413 1100 1028 2166 1766
3060 101 122 417 440 554 557 672 574 1591 1060 2570 1358 732 223 1470 345
2080 343 348 0 629 -28 953 -94 1276 -258 2410 -1035 3350 -2294 777 -1040
1403 -2407 1756 -3830 113 -458 200 -962 222 -1282 4 -57 12 -107 18 -111 6
-5 72 -23 146 -42 363 -89 1011 -283 1574 -471 197 -66 361 -118 363 -115 13
12 -58 707 -108 1066 -313 2259 -1066 4210 -2227 5770 -1209 1625 -2829 2748
-4602 3190 -370 92 -683 146 -1085 187 -140 14 -906 27 -1025 17z"/>
<path d="M15103 21450 c-723 -61 -1373 -445 -1765 -1044 -366 -559 -474 -1222
-307 -1873 60 -234 171 -483 306 -688 231 -350 545 -627 918 -810 223 -110
443 -179 689 -216 187 -28 476 -30 656 -4 769 110 1420 577 1766 1268 35 70
65 127 67 128 1 1 175 8 387 18 973 41 2030 -31 3080 -209 2008 -342 3918
-1076 5720 -2198 556 -346 1118 -749 1571 -1127 477 -398 963 -871 1364 -1330
381 -435 824 -1043 1122 -1540 437 -728 814 -1566 1017 -2258 442 -1506 346
-2918 -283 -4175 -458 -916 -1088 -1690 -1841 -2261 -1325 -1007 -3064 -1404
-5060 -1155 -525 65 -1097 183 -1629 335 -379 108 -971 320 -1261 452 l-56 25
-94 -85 c-335 -300 -851 -715 -1507 -1214 l-272 -207 143 -66 c1422 -653 2866
-1047 4286 -1170 599 -52 1303 -52 1880 0 2108 190 4017 995 5534 2333 178
157 536 516 685 686 703 804 1128 1564 1397 2499 96 336 177 737 223 1106 48
387 55 513 56 1020 0 494 -6 616 -46 986 -216 1991 -1082 3942 -2498 5624
-366 435 -613 704 -1020 1110 -613 612 -1170 1090 -1851 1586 -2528 1843
-5617 2934 -8980 3173 -556 40 -704 44 -1433 46 l-729 2 -61 102 c-229 378
-557 687 -937 880 -322 165 -627 243 -990 255 -80 2 -191 1 -247 -4z"/>
<path d="M5801 16350 c-858 -643 -1644 -1382 -2261 -2125 -1190 -1430 -1942
-3016 -2230 -4698 -279 -1633 -107 -3339 483 -4802 298 -739 656 -1340 1123
-1885 123 -143 453 -480 599 -610 1159 -1036 2700 -1739 4440 -2029 592 -98
1124 -141 1750 -141 1084 0 2033 134 3350 470 3453 882 6382 2693 8574 5300
842 1001 1604 2166 2187 3342 66 133 70 138 104 143 468 74 824 228 1168 504
108 87 268 249 354 357 260 327 431 735 489 1164 17 121 17 448 1 565 -41 296
-114 533 -242 784 -114 223 -252 412 -436 593 -191 189 -366 313 -605 432
-639 318 -1392 324 -2034 17 -654 -313 -1121 -903 -1279 -1616 -46 -209 -61
-569 -32 -785 64 -476 275 -930 587 -1265 l73 -77 -43 -86 c-60 -121 -261
-488 -366 -667 -1277 -2184 -3099 -3910 -5670 -5372 -1032 -587 -1853 -961
-2750 -1253 -1524 -495 -3096 -657 -4660 -479 -1960 222 -3468 1079 -4401
2499 -1314 2001 -1432 4187 -343 6362 293 586 700 1203 1155 1753 370 447 852
939 1284 1311 99 86 345 286 389 316 20 14 19 15 -20 139 -133 412 -326 1143
-462 1751 -30 131 -56 240 -58 243 -3 2 -101 -67 -218 -155z"/>
</g>
</svg>
